<svg xmlns="http://www.w3.org/2000/svg" width="16" height="16" viewBox="0 0 16 16" fill="none">
    <mask id="mask0_419_5852" style="mask-type:alpha" maskUnits="userSpaceOnUse" x="0" y="0" width="16" height="16">
        <rect width="16" height="16" fill="#D9D9D9"/>
    </mask>
    <g mask="url(#mask0_419_5852)">
        <path d="M7.99994 8.7L4.6166 12.0833C4.52771 12.1722 4.41393 12.2193 4.27527 12.2247C4.13616 12.2304 4.0166 12.1833 3.9166 12.0833C3.8166 11.9833 3.7666 11.8667 3.7666 11.7333C3.7666 11.6 3.8166 11.4833 3.9166 11.3833L7.29993 8L3.9166 4.61666C3.82771 4.52777 3.7806 4.41377 3.77527 4.27466C3.76949 4.136 3.8166 4.01666 3.9166 3.91666C4.0166 3.81666 4.13327 3.76666 4.2666 3.76666C4.39993 3.76666 4.5166 3.81666 4.6166 3.91666L7.99994 7.3L11.3833 3.91666C11.4722 3.82777 11.5862 3.78044 11.7253 3.77466C11.8639 3.76933 11.9833 3.81666 12.0833 3.91666C12.1833 4.01666 12.2333 4.13333 12.2333 4.26666C12.2333 4.4 12.1833 4.51666 12.0833 4.61666L8.69993 8L12.0833 11.3833C12.1722 11.4722 12.2193 11.586 12.2246 11.7247C12.2304 11.8638 12.1833 11.9833 12.0833 12.0833C11.9833 12.1833 11.8666 12.2333 11.7333 12.2333C11.5999 12.2333 11.4833 12.1833 11.3833 12.0833L7.99994 8.7Z" fill="#858E99"/>
    </g>
</svg>
