<svg xmlns="http://www.w3.org/2000/svg" width="16" height="16" fill="none"><mask id="a" width="16" height="16" x="0" y="0" maskUnits="userSpaceOnUse" style="mask-type:alpha"><path fill="#D9D9D9" d="M0 0h16v16H0z"/></mask><g mask="url(#a)"><path fill="#FF5147" d="M6.024 14c-.165 0-.324-.032-.477-.097a1.495 1.495 0 0 1-.423-.274L2.37 10.877a1.484 1.484 0 0 1-.274-.424A1.207 1.207 0 0 1 2 9.976V6.024c0-.165.032-.324.097-.477.065-.153.156-.294.274-.423L5.124 2.37c.129-.118.27-.21.423-.274C5.7 2.032 5.86 2 6.024 2h3.952c.165 0 .324.032.477.097.153.065.294.156.424.274l2.752 2.753c.118.129.21.27.274.423.065.153.097.312.097.477v3.952c0 .165-.032.324-.097.477a1.495 1.495 0 0 1-.274.424l-2.752 2.752c-.13.118-.271.21-.424.274a1.214 1.214 0 0 1-.477.097H6.024ZM8 11.318a.55.55 0 0 0 .406-.16.55.55 0 0 0 .159-.405.55.55 0 0 0-.16-.406.55.55 0 0 0-.405-.159.55.55 0 0 0-.406.16.55.55 0 0 0-.159.405c0 .165.053.3.16.406a.55.55 0 0 0 .405.159Zm0-2.453a.515.515 0 0 0 .53-.53V5.141c0-.153-.05-.28-.15-.38a.516.516 0 0 0-.38-.15.514.514 0 0 0-.53.53v3.194a.512.512 0 0 0 .53.53Z"/></g></svg>