<svg xmlns="http://www.w3.org/2000/svg" width="16" height="16" fill="none"><mask id="a" width="16" height="16" x="0" y="0" maskUnits="userSpaceOnUse" style="mask-type:alpha"><path fill="#D9D9D9" d="M0 0h16v16H0z"/></mask><g mask="url(#a)"><path fill="#52CEC4" d="M7.05 9.433 5.483 7.867a.452.452 0 0 0-.333-.134.48.48 0 0 0-.35.15.48.48 0 0 0 0 .7l1.833 1.834c.112.11.25.166.417.166a.623.623 0 0 0 .433-.166L11.2 6.683a.452.452 0 0 0 .133-.333.48.48 0 0 0-.15-.35.48.48 0 0 0-.7 0L7.05 9.433Zm.95 4.9a6.176 6.176 0 0 1-2.475-.5 6.389 6.389 0 0 1-2.008-1.35 6.388 6.388 0 0 1-1.35-2.008A6.175 6.175 0 0 1 1.667 8c0-.878.166-1.703.5-2.475a6.389 6.389 0 0 1 1.35-2.008 6.387 6.387 0 0 1 2.008-1.35A6.175 6.175 0 0 1 8 1.667a6.18 6.18 0 0 1 2.475.5 6.389 6.389 0 0 1 2.008 1.35 6.388 6.388 0 0 1 1.35 2.008c.334.772.5 1.597.5 2.475 0 .878-.166 1.703-.5 2.475a6.387 6.387 0 0 1-1.35 2.008 6.391 6.391 0 0 1-2.008 1.35 6.18 6.18 0 0 1-2.475.5Z"/></g></svg>
